<?xml version="1.0" encoding="utf-8"?>
<!-- Generator: Adobe Illustrator 23.0.3, SVG Export Plug-In . SVG Version: 6.00 Build 0)  -->
<svg version="1.1" id="Слой_1" xmlns="http://www.w3.org/2000/svg" xmlns:xlink="http://www.w3.org/1999/xlink" x="0px" y="0px"
	 viewBox="0 0 685 86.6" style="enable-background:new 0 0 685 86.6;" xml:space="preserve">
<style type="text/css">
	.st0{enable-background:new    ;}
</style>
<g class="st0">
	<path d="M2.2,72.5V12.3h8v29.9L40,12.3h10.8L25.6,36.7l26.4,35.8H41.4L20,42l-9.9,9.6v20.9H2.2z"/>
	<path d="M64.2,43.2c0-10,2.7-17.8,8-23.5c5.4-5.7,12.3-8.5,20.8-8.5c5.6,0,10.6,1.3,15,4c4.5,2.7,7.9,6.4,10.2,11.1
		c2.3,4.8,3.5,10.1,3.5,16.2c0,6.1-1.2,11.6-3.7,16.4c-2.5,4.8-6,8.5-10.5,10.9c-4.5,2.5-9.4,3.7-14.6,3.7c-5.7,0-10.7-1.4-15.2-4.1
		c-4.5-2.7-7.8-6.5-10.1-11.2S64.2,48.5,64.2,43.2z M72.4,43.3c0,7.3,2,13,5.9,17.1s8.8,6.3,14.7,6.3c6,0,10.9-2.1,14.8-6.3
		c3.9-4.2,5.8-10.2,5.8-17.9c0-4.9-0.8-9.2-2.5-12.8c-1.7-3.7-4.1-6.5-7.3-8.5c-3.2-2-6.8-3-10.7-3c-5.6,0-10.5,1.9-14.6,5.8
		C74.4,27.8,72.4,34.2,72.4,43.3z"/>
	<path d="M137.3,53.2l7.5-0.7c0.4,3,1.2,5.5,2.5,7.4c1.3,1.9,3.3,3.5,6.1,4.7c2.7,1.2,5.8,1.8,9.2,1.8c3,0,5.7-0.5,8-1.4
		c2.3-0.9,4.1-2.1,5.2-3.7c1.1-1.6,1.7-3.3,1.7-5.2c0-1.9-0.5-3.5-1.6-4.9c-1.1-1.4-2.9-2.6-5.4-3.6c-1.6-0.6-5.2-1.6-10.7-2.9
		c-5.5-1.3-9.4-2.6-11.6-3.8c-2.9-1.5-5-3.4-6.4-5.6c-1.4-2.2-2.1-4.7-2.1-7.5c0-3,0.9-5.9,2.6-8.5c1.7-2.6,4.2-4.6,7.6-6
		c3.3-1.4,7-2.1,11-2.1c4.5,0,8.4,0.7,11.8,2.2c3.4,1.4,6,3.6,7.9,6.3c1.8,2.8,2.8,6,3,9.5l-7.6,0.6c-0.4-3.8-1.8-6.7-4.2-8.6
		c-2.4-1.9-5.9-2.9-10.5-2.9c-4.8,0-8.3,0.9-10.5,2.6c-2.2,1.8-3.3,3.9-3.3,6.4c0,2.2,0.8,3.9,2.3,5.3c1.5,1.4,5.5,2.8,12,4.3
		s10.9,2.7,13.3,3.8c3.5,1.6,6.1,3.7,7.8,6.1c1.7,2.5,2.5,5.3,2.5,8.6c0,3.2-0.9,6.2-2.8,9.1c-1.8,2.8-4.5,5-7.9,6.6
		c-3.4,1.6-7.3,2.4-11.6,2.4c-5.4,0-10-0.8-13.7-2.4c-3.7-1.6-6.6-4-8.7-7.2C138.5,60.8,137.4,57.2,137.3,53.2z"/>
	<path d="M243.6,12.3h8v34.8c0,6.1-0.7,10.9-2.1,14.4c-1.4,3.6-3.8,6.5-7.4,8.7s-8.3,3.3-14.1,3.3c-5.6,0-10.3-1-13.8-2.9
		c-3.6-1.9-6.1-4.8-7.7-8.4c-1.5-3.7-2.3-8.7-2.3-15.1V12.3h8V47c0,5.2,0.5,9.1,1.5,11.6c1,2.5,2.6,4.4,5,5.7c2.4,1.3,5.3,2,8.7,2
		c5.9,0,10-1.3,12.5-4c2.5-2.7,3.7-7.8,3.7-15.3V12.3z"/>
	<path d="M301,48.9v-7.1l25.5,0v22.3c-3.9,3.1-8,5.5-12.1,7c-4.2,1.6-8.4,2.4-12.8,2.4c-5.9,0-11.3-1.3-16.1-3.8
		c-4.8-2.5-8.5-6.2-10.9-11s-3.7-10.1-3.7-16.1c0-5.9,1.2-11.3,3.7-16.4c2.4-5.1,6-8.8,10.6-11.3c4.6-2.5,9.9-3.7,15.9-3.7
		c4.4,0,8.3,0.7,11.8,2.1c3.5,1.4,6.3,3.4,8.3,5.9c2,2.5,3.5,5.8,4.6,9.9l-7.2,2c-0.9-3.1-2-5.5-3.4-7.2c-1.3-1.8-3.3-3.2-5.7-4.2
		c-2.5-1.1-5.3-1.6-8.3-1.6c-3.6,0-6.8,0.6-9.4,1.7c-2.7,1.1-4.8,2.6-6.4,4.4c-1.6,1.8-2.9,3.8-3.8,6c-1.5,3.7-2.3,7.8-2.3,12.1
		c0,5.4,0.9,9.9,2.8,13.5c1.8,3.6,4.5,6.3,8.1,8s7.3,2.6,11.3,2.6c3.4,0,6.8-0.7,10.1-2s5.8-2.7,7.5-4.3V48.9H301z"/>
	<path d="M347.6,72.5V12.3h8v60.2H347.6z"/>
	<path d="M405.8,48.9v-7.1l25.5,0v22.3c-3.9,3.1-8,5.5-12.1,7c-4.2,1.6-8.4,2.4-12.8,2.4c-5.9,0-11.3-1.3-16.1-3.8
		c-4.8-2.5-8.5-6.2-10.9-11s-3.7-10.1-3.7-16.1c0-5.9,1.2-11.3,3.7-16.4c2.5-5.1,6-8.8,10.6-11.3c4.6-2.5,9.9-3.7,15.9-3.7
		c4.4,0,8.3,0.7,11.8,2.1c3.5,1.4,6.3,3.4,8.3,5.9c2,2.5,3.5,5.8,4.6,9.9l-7.2,2c-0.9-3.1-2-5.5-3.4-7.2c-1.3-1.8-3.3-3.2-5.8-4.2
		s-5.3-1.6-8.3-1.6c-3.6,0-6.8,0.6-9.4,1.7c-2.7,1.1-4.8,2.6-6.4,4.4c-1.6,1.8-2.9,3.8-3.8,6c-1.5,3.7-2.3,7.8-2.3,12.1
		c0,5.4,0.9,9.9,2.8,13.5c1.8,3.6,4.5,6.3,8.1,8c3.5,1.8,7.3,2.6,11.3,2.6c3.4,0,6.8-0.7,10.1-2s5.8-2.7,7.5-4.3V48.9H405.8z"/>
	<path d="M444.4,72.5l23.1-60.2h8.6l24.6,60.2h-9.1l-7-18.2h-25.2l-6.6,18.2H444.4z M461.7,47.8h20.4l-6.3-16.7
		c-1.9-5.1-3.3-9.2-4.3-12.5c-0.8,3.9-1.8,7.7-3.2,11.5L461.7,47.8z"/>
	<path d="M524.2,72.5V19.4h-19.8v-7.1H552v7.1h-19.9v53.1H524.2z"/>
	<path d="M565.5,53.2l7.5-0.7c0.4,3,1.2,5.5,2.5,7.4c1.3,1.9,3.3,3.5,6.1,4.7c2.7,1.2,5.8,1.8,9.2,1.8c3,0,5.7-0.5,8-1.4
		c2.3-0.9,4.1-2.1,5.2-3.7c1.1-1.6,1.7-3.3,1.7-5.2c0-1.9-0.5-3.5-1.6-4.9c-1.1-1.4-2.9-2.6-5.4-3.6c-1.6-0.6-5.2-1.6-10.7-2.9
		s-9.4-2.6-11.6-3.8c-2.9-1.5-5-3.4-6.4-5.6s-2.1-4.7-2.1-7.5c0-3,0.9-5.9,2.6-8.5c1.7-2.6,4.2-4.6,7.6-6c3.3-1.4,7-2.1,11-2.1
		c4.5,0,8.4,0.7,11.8,2.2c3.4,1.4,6,3.6,7.9,6.3c1.8,2.8,2.8,6,3,9.5l-7.6,0.6c-0.4-3.8-1.8-6.7-4.2-8.6c-2.4-1.9-5.9-2.9-10.5-2.9
		c-4.8,0-8.3,0.9-10.5,2.6c-2.2,1.8-3.3,3.9-3.3,6.4c0,2.2,0.8,3.9,2.3,5.3c1.5,1.4,5.5,2.8,12,4.3c6.5,1.5,10.9,2.7,13.3,3.8
		c3.5,1.6,6.1,3.7,7.8,6.1c1.7,2.5,2.5,5.3,2.5,8.6c0,3.2-0.9,6.2-2.8,9.1s-4.5,5-7.9,6.6c-3.4,1.6-7.3,2.4-11.6,2.4
		c-5.4,0-10-0.8-13.7-2.4c-3.7-1.6-6.6-4-8.7-7.2C566.7,60.8,565.6,57.2,565.5,53.2z"/>
	<path d="M671.8,12.3h8v34.8c0,6.1-0.7,10.9-2.1,14.4c-1.4,3.6-3.8,6.5-7.4,8.7c-3.6,2.2-8.3,3.3-14.1,3.3c-5.6,0-10.3-1-13.8-2.9
		c-3.6-1.9-6.1-4.8-7.7-8.4c-1.5-3.7-2.3-8.7-2.3-15.1V12.3h8V47c0,5.2,0.5,9.1,1.5,11.6c1,2.5,2.6,4.4,5,5.7c2.4,1.3,5.3,2,8.7,2
		c5.9,0,10-1.3,12.5-4c2.5-2.7,3.7-7.8,3.7-15.3V12.3z"/>
</g>
</svg>
