<svg width="24" height="17" viewBox="0 0 24 17" fill="none" xmlns="http://www.w3.org/2000/svg">
<path d="M16.1711 16.7443C15.8327 17.0852 15.3001 17.0852 14.9617 16.7443C14.6348 16.4149 14.6348 15.8667 14.9617 15.5381L21.0938 9.35956L0.858807 9.35956C0.38711 9.35956 -1.20638e-06 8.9818 -1.16483e-06 8.50652C-1.12328e-06 8.03125 0.387111 7.64121 0.858807 7.64121L21.0938 7.64121L14.9617 1.47419C14.6348 1.13328 14.6348 0.584302 14.9617 0.255681C15.3001 -0.0852249 15.8327 -0.0852249 16.1711 0.255681L23.7548 7.89689C24.0817 8.22628 24.0817 8.77449 23.7548 9.10311L16.1711 16.7443Z" fill="black"/>
</svg>
