<svg width="25" height="25" viewBox="0 0 25 25" fill="none" xmlns="http://www.w3.org/2000/svg">
<path d="M18.1008 0H6.89895C3.09487 0 0 3.09502 0 6.8991V18.1009C0 21.9051 3.09487 25 6.89895 25H18.1008C21.9051 25 25 21.905 25 18.1009V6.8991C25.0001 3.09502 21.9051 0 18.1008 0ZM22.782 18.1009C22.782 20.6821 20.6821 22.7819 18.1009 22.7819H6.89895C4.31794 22.782 2.21812 20.6821 2.21812 18.1009V6.8991C2.21812 4.31809 4.31794 2.21812 6.89895 2.21812H18.1008C20.6819 2.21812 22.7819 4.31809 22.7819 6.8991V18.1009H22.782Z" fill="black"/>
<path d="M12.5 6.05835C8.94787 6.05835 6.05811 8.94812 6.05811 12.5002C6.05811 16.0522 8.94787 18.9418 12.5 18.9418C16.0521 18.9418 18.9418 16.0522 18.9418 12.5002C18.9418 8.94812 16.0521 6.05835 12.5 6.05835ZM12.5 16.7235C10.1711 16.7235 8.27623 14.8289 8.27623 12.5001C8.27623 10.171 10.1709 8.27632 12.5 8.27632C14.829 8.27632 16.7237 10.171 16.7237 12.5001C16.7237 14.8289 14.8289 16.7235 12.5 16.7235Z" fill="black"/>
<path d="M19.2121 4.17749C18.7847 4.17749 18.3649 4.3505 18.0631 4.65365C17.7598 4.95531 17.5854 5.37528 17.5854 5.80411C17.5854 6.23162 17.7599 6.65143 18.0631 6.95458C18.3647 7.25624 18.7847 7.43073 19.2121 7.43073C19.6409 7.43073 20.0594 7.25624 20.3625 6.95458C20.6657 6.65143 20.8387 6.23147 20.8387 5.80411C20.8387 5.37528 20.6657 4.95531 20.3625 4.65365C20.0609 4.3505 19.6409 4.17749 19.2121 4.17749Z" fill="black"/>
</svg>
