<svg width="1029" height="109" viewBox="0 0 1029 109" fill="none" xmlns="http://www.w3.org/2000/svg">
<path d="M0 0V109H14.4216V71.2367L32.2392 53.8274L70.9909 109H90L42.3257 44.1582L87.9972 0H68.4815L14.4216 54.0559V0H0Z" fill="#1B1918"/>
<path d="M274.3 11.4457C272.905 18.4502 270.951 25.3788 268.414 32.2818L240.326 109H225L266.866 0H282.395L327 109H310.558L297.846 75.9834L282.013 34.0573C278.563 24.8968 275.974 17.3588 274.3 11.4457Z" fill="#1B1918"/>
<path d="M502.165 12.8669V109H516.681V12.8669H553V0H466V12.8669H502.165Z" fill="#1B1918"/>
<path d="M712.172 72.1841L699 73.3377C699.172 80.3815 701.113 86.7147 704.775 92.2855C708.462 97.8816 713.524 102.054 719.987 104.828C726.426 107.626 734.439 109 743.999 109C751.519 109 758.301 107.626 764.322 104.877C770.344 102.103 774.963 98.2496 778.183 93.292C781.402 88.3337 783 83.057 783 77.4364C783 71.7916 781.55 66.7845 778.626 62.4404C775.701 58.1207 771.155 54.5369 765.01 51.6903C760.784 49.7752 752.993 47.5417 741.639 44.9646C730.285 42.412 723.28 39.9089 720.577 37.4544C717.85 35.0243 716.473 31.9071 716.473 28.1031C716.473 23.7583 718.415 20.0272 722.273 16.9351C726.156 13.843 732.301 12.2964 740.755 12.2964C748.864 12.2964 754.984 13.9904 759.137 17.4016C763.29 20.7887 765.723 25.8445 766.461 32.4962L779.854 31.4902C779.609 25.3053 777.864 19.7577 774.669 14.8735C771.449 9.98984 766.854 6.28323 760.882 3.77948C754.886 1.25195 748.004 0 740.165 0C733.062 0 726.623 1.20241 720.799 3.5836C714.999 5.98824 710.575 9.49825 707.552 14.1374C704.529 18.7521 703.03 23.7339 703.03 29.0361C703.03 33.8952 704.259 38.2645 706.717 42.1666C709.199 46.0687 712.959 49.3584 717.997 51.9843C721.879 54.0461 728.688 56.23 738.37 58.5617C748.077 60.8933 754.32 62.6117 757.171 63.7168C761.57 65.3854 764.74 67.4475 766.657 69.9261C768.599 72.4051 769.557 75.2772 769.557 78.5903C769.557 81.8546 768.55 84.8491 766.558 87.6221C764.568 90.3713 761.521 92.5308 757.442 94.1264C753.362 95.6969 748.667 96.4825 743.335 96.4825C737.338 96.4825 731.931 95.4516 727.139 93.3654C722.347 91.2799 718.808 88.5548 716.523 85.1677C714.237 81.7805 712.787 77.4608 712.172 72.1841Z" fill="#1B1918"/>
<path d="M1029 0H1014.85V61.8615C1014.85 75.3125 1012.64 84.3953 1008.24 89.1119C1003.81 93.8531 996.4 96.224 986.006 96.224C979.937 96.224 974.791 95.0263 970.587 92.6299C966.41 90.2344 963.426 86.841 961.71 82.4243C959.995 78.0324 959.125 71.1699 959.125 61.8615V0H945V61.9367C945 73.2913 946.343 82.2245 949.078 88.7871C951.789 95.3501 956.339 100.366 962.705 103.81C969.046 107.279 977.252 109 987.248 109C997.543 109 1005.85 107.029 1012.19 103.036C1018.53 99.0689 1022.91 93.9277 1025.34 87.5894C1027.78 81.2515 1029 72.6924 1029 61.9367V0Z" fill="#1B1918"/>
</svg>
